<svg width="370" height="82" viewBox="0 0 370 82" fill="none" xmlns="http://www.w3.org/2000/svg">
<path d="M86.0473 46.1695C82.5684 46.1875 79.5446 47.0254 77.0129 48.264C76.0836 46.4242 75.1547 44.7851 74.9911 43.5828C74.8086 42.1805 74.5903 41.3242 74.8086 39.6484C75.0274 37.9726 76.011 35.5863 75.9926 35.4043C75.9746 35.2223 75.7739 34.366 73.7704 34.348C71.7668 34.3297 70.0364 34.7305 69.836 35.2586C69.6356 35.7867 69.2532 36.989 68.9981 38.2273C68.652 40.0492 64.9911 46.5515 62.8965 49.9578C62.2223 48.6285 61.6395 47.4625 61.5118 46.5336C61.3297 45.1312 61.111 44.275 61.3297 42.5992C61.5485 40.9234 62.5321 38.5375 62.5137 38.3551C62.4954 38.173 62.295 37.3168 60.2914 37.2988C58.2875 37.2805 56.5571 37.6812 56.3571 38.2094C56.1567 38.7379 55.9379 39.9762 55.5192 41.1785C55.1 42.3808 50.2368 53.2371 48.9618 56.0418C48.4465 57.177 47.906 58.3006 47.3407 59.4117C47.3407 59.4117 47.3223 59.4664 47.2676 59.5574C47.09 59.9058 46.908 60.2519 46.7215 60.5957V60.6137C46.4481 61.1058 46.1567 61.5609 46.011 61.5609C45.9016 61.5609 45.7012 60.2496 46.0473 58.4644C46.7758 54.6941 48.5063 48.8289 48.4883 48.6285C48.4883 48.5191 48.8161 47.4992 47.359 46.9707C45.9379 46.4426 45.4282 47.3168 45.3004 47.3168C45.1731 47.3168 45.0817 47.6266 45.0817 47.6266C45.0817 47.6266 46.6668 41.0328 42.0582 41.0328C39.1805 41.0328 35.2094 44.184 33.2422 47.0254C31.006 48.2423 28.7716 49.4628 26.5391 50.6867C25.4649 51.2879 24.3536 51.889 23.3153 52.4535C23.2422 52.3808 23.1696 52.2894 23.0965 52.2168C17.5227 46.2605 7.21332 42.0527 7.65043 34.0566C7.81449 31.1422 8.81606 23.4918 27.45 14.2023C42.7868 6.64296 54.9911 8.73749 57.104 13.3824C60.1274 20.0129 50.5649 32.3262 34.7176 34.1109C28.6704 34.7851 25.5008 32.4535 24.6996 31.5793C23.8618 30.6683 23.734 30.6137 23.4243 30.7961C22.9145 31.0695 23.2422 31.889 23.4243 32.3625C23.8981 33.6008 25.8469 35.7867 29.1438 36.8617C32.0582 37.8086 39.1438 38.3371 47.7231 35.0219C57.3223 31.3058 64.827 20.9781 62.6231 12.3262C60.4188 3.54647 45.8469 0.650377 32.0582 5.54999C23.8618 8.46483 14.9727 13.0547 8.57934 19.0293C0.983634 26.1328 -0.218709 32.3078 0.273088 34.8945C2.04028 44.0746 14.6997 50.0492 19.7633 54.4754C19.5082 54.6211 19.2711 54.7488 19.0711 54.8582C16.5391 56.1148 6.8852 61.1601 4.4809 66.4972C1.74887 72.5445 4.9184 76.8801 7.01293 77.4625C13.5157 79.266 20.2004 76.0238 23.7887 70.6683C27.377 65.3133 26.9399 58.3551 25.2825 55.1676C25.2641 55.1312 25.2461 55.0945 25.2094 55.0582C25.8653 54.6758 26.5391 54.275 27.195 53.8926C28.4004 53.18 29.6211 52.4936 30.8563 51.834C30.2368 53.5281 29.7813 55.55 29.5629 58.4644C29.2895 61.889 30.6918 66.3332 32.5317 68.0816C33.3516 68.8472 34.3168 68.8652 34.9364 68.8652C37.0856 68.8652 38.0512 67.0801 39.1258 64.9672C40.4372 62.3808 41.6211 59.3754 41.6211 59.3754C41.6211 59.3754 40.1457 67.4992 44.1532 67.4992C45.6102 67.4992 47.0856 65.6047 47.7414 64.6394V64.6574C47.7414 64.6574 47.7778 64.6027 47.8508 64.4754C47.9965 64.2387 48.0875 64.0926 48.0875 64.0926V64.0566C48.6704 63.0363 49.9821 60.723 51.9309 56.8797C54.4446 51.9254 56.8672 45.7324 56.8672 45.7324C56.8672 45.7324 57.086 47.2441 57.8325 49.7578C58.27 51.2332 59.1801 52.8543 59.909 54.4207C59.3262 55.2406 58.9618 55.6957 58.9618 55.6957L58.9801 55.714C58.5063 56.3332 57.9965 57.007 57.4317 57.6633C55.4461 60.0308 53.0786 62.7453 52.7504 63.5281C52.3676 64.457 52.459 65.1312 53.1879 65.6777C53.7161 66.0785 54.6629 66.1328 55.6286 66.0785C57.4137 65.9508 58.6704 65.5137 59.2895 65.2406C60.2551 64.8945 61.3844 64.366 62.4407 63.5828C64.3899 62.1437 65.5735 60.0855 65.4645 57.3719C65.4098 55.8781 64.918 54.3844 64.3168 52.9816C64.4993 52.7269 64.6629 52.4719 64.8454 52.2168C67.9235 47.7176 70.3098 42.7812 70.3098 42.7812C70.3098 42.7812 70.5286 44.293 71.275 46.807C71.6395 48.082 72.3864 49.4664 73.0418 50.814C70.1457 53.1641 68.3606 55.8961 67.7231 57.6812C66.5758 60.9965 67.468 62.4898 69.1621 62.8359C69.927 63 71.02 62.6355 71.8215 62.2894C72.8415 61.9617 74.0438 61.3973 75.1915 60.559C77.1407 59.1203 79.0164 57.1164 78.9071 54.4027C78.8524 53.164 78.5247 51.9433 78.0692 50.7594C80.5282 49.7398 83.6977 49.175 87.7411 49.6484C96.4118 50.6683 98.1239 56.0781 97.7957 58.3555C97.468 60.632 95.6465 61.8707 95.0457 62.2531C94.4442 62.6359 94.2442 62.7633 94.2989 63.0363C94.3715 63.4371 94.6629 63.4191 95.1731 63.3461C95.8836 63.2187 99.727 61.5062 99.8907 57.3168C100.164 51.9617 95.0637 46.1148 86.0473 46.1695ZM19.1622 68.7195C16.284 71.8523 12.277 73.0363 10.5465 72.0348C8.68871 70.9598 9.41723 66.3332 12.9508 63.0183C15.1 60.9965 17.8688 59.1199 19.7086 57.9726C20.1274 57.7176 20.7469 57.3535 21.4938 56.898C21.6211 56.825 21.6942 56.7887 21.6942 56.7887L22.1313 56.5152C23.4243 61.2512 22.186 65.4226 19.1622 68.7195ZM40.1094 54.4754C39.1075 56.9164 37.0129 63.164 35.7379 62.818C34.645 62.5265 33.9707 57.7906 35.5192 53.1094C36.3024 50.7594 37.9598 47.9543 38.9254 46.8617C40.4918 45.1129 42.2223 44.5297 42.6411 45.2406C43.1696 46.1695 40.7286 52.9453 40.1094 54.4754ZM57.3954 62.7449C56.9762 62.9637 56.5758 63.1094 56.3934 63C56.2661 62.9269 56.5758 62.6355 56.5758 62.6355C56.5758 62.6355 58.7434 60.3043 59.5993 59.2476C60.0914 58.6285 60.6739 57.9 61.2934 57.0801V57.3168C61.2934 60.1039 58.5973 61.9801 57.395 62.7449H57.3954ZM70.7286 59.7031C70.4188 59.4844 70.4735 58.7558 71.5118 56.4789C71.9125 55.5863 72.8594 54.093 74.4809 52.6539C74.6629 53.2367 74.7907 53.8016 74.7723 54.3297C74.754 57.8453 72.2407 59.1566 70.7286 59.7031Z" fill="#CD6799"/>
<path d="M146 71.4268C146 77.2667 150.734 82 156.573 82H217.426C223.267 82 228 77.2661 228 71.4268V10.5735C228 4.73326 223.266 0 217.427 0H156.574C150.733 0 146 4.7339 146 10.5732V71.4265V71.4268Z" fill="#563D7C"/>
<path d="M180.004 36.2715V24.6593H190.225C191.199 24.6593 192.138 24.7403 193.041 24.9027C193.945 25.0648 194.745 25.3543 195.441 25.7717C196.136 26.1891 196.692 26.7685 197.109 27.51C197.526 28.2519 197.735 29.2023 197.735 30.3608C197.735 32.447 197.109 33.9538 195.858 34.8808C194.606 35.8081 193.007 36.2715 191.06 36.2715H180.004ZM169.087 16.1758V65.8242H193.146C195.371 65.8242 197.538 65.5462 199.648 64.9898C201.757 64.4334 203.634 63.5759 205.28 62.4171C206.925 61.2582 208.235 59.7629 209.209 57.932C210.182 56.1008 210.669 53.9336 210.669 51.4303C210.669 48.3243 209.916 45.6705 208.409 43.4686C206.902 41.2665 204.619 39.7252 201.56 38.8443C203.785 37.7783 205.465 36.4106 206.601 34.7417C207.737 33.0729 208.305 30.987 208.305 28.4835C208.305 26.1657 207.922 24.2188 207.157 22.6426C206.392 21.0666 205.315 19.8033 203.924 18.853C202.533 17.9026 200.864 17.2187 198.917 16.8017C196.97 16.3843 194.815 16.1758 192.45 16.1758H169.087ZM180.004 57.3407V43.7118H191.894C194.258 43.7118 196.159 44.2563 197.596 45.346C199.033 46.4354 199.752 48.2548 199.752 50.8044C199.752 52.1027 199.532 53.1687 199.091 54.0031C198.651 54.8375 198.06 55.4983 197.318 55.9849C196.576 56.4717 195.719 56.8193 194.745 57.0281C193.771 57.2363 192.752 57.3407 191.686 57.3407H180.004Z" fill="white"/>
<path d="M320 11C306.667 11 298.333 17.6495 295 30.9481C300 24.2986 305.833 21.8051 312.5 23.4675C316.304 24.4158 319.022 27.1684 322.032 30.2148C326.934 35.1781 332.607 40.9221 345 40.9221C358.333 40.9221 366.667 34.2726 370 20.974C365 27.6235 359.167 30.117 352.5 28.4545C348.696 27.5062 345.978 24.7536 342.968 21.7073C338.066 16.744 332.393 11 320 11ZM295 40.9221C281.667 40.9221 273.333 47.5716 270 60.8701C275 54.2206 280.833 51.7271 287.5 53.3896C291.304 54.3379 294.022 57.0905 297.032 60.1369C301.934 65.1001 307.607 70.8442 320 70.8442C333.333 70.8442 341.667 64.1947 345 50.8961C340 57.5456 334.167 60.0391 327.5 58.3766C323.696 57.4283 320.978 54.6757 317.968 51.6293C313.066 46.6661 307.393 40.9221 295 40.9221Z" fill="url(#paint0_linear)"/>
<defs>
<linearGradient id="paint0_linear" x1="267.222" y1="30.1501" x2="353.476" y2="80.0122" gradientUnits="userSpaceOnUse">
<stop stop-color="#2298BD"/>
<stop offset="1" stop-color="#0ED7B5"/>
</linearGradient>
</defs>
</svg>
