<svg width="370" height="108" viewBox="0 0 370 108" fill="none" xmlns="http://www.w3.org/2000/svg">
<path d="M328.669 61.5625C329.638 63.5277 331.143 65.1796 333.009 66.3284C334.875 67.4771 337.027 68.0759 339.219 68.0562C343.65 68.0562 346.481 65.8406 346.481 62.7812C346.481 59.1156 343.572 57.8156 338.697 55.6812L336.022 54.5343C328.306 51.2468 323.178 47.1281 323.178 38.4218C323.178 30.4 329.291 24.2968 338.841 24.2968C341.94 24.0719 345.037 24.7657 347.745 26.2914C350.452 27.8171 352.65 30.1071 354.063 32.875L345.734 38.2218C345.189 36.8503 344.239 35.6771 343.011 34.8582C341.783 34.0394 340.335 33.6136 338.859 33.6375C338.216 33.5727 337.566 33.6428 336.952 33.8431C336.337 34.0434 335.771 34.3697 335.289 34.801C334.808 35.2323 334.421 35.7593 334.155 36.3483C333.888 36.9373 333.747 37.5753 333.741 38.2218C333.741 41.4312 335.728 42.7281 340.303 44.7156L342.978 45.8593C352.066 49.7562 357.194 53.7281 357.194 62.6593C357.194 72.2875 349.631 77.5624 339.472 77.5624C335.515 77.8142 331.569 76.9154 328.111 74.9747C324.653 73.0339 321.831 70.1341 319.984 66.6249L328.669 61.5625ZM290.894 62.5C292.575 65.4812 294.103 68 297.769 68C301.281 68 303.5 66.625 303.5 61.2812V24.9218H314.194V61.4312C314.194 72.5031 307.7 77.5437 298.225 77.5437C294.878 77.7249 291.555 76.8886 288.692 75.145C285.83 73.4014 283.562 70.832 282.188 67.7749L290.894 62.5Z" fill="#F5DE19"/>
<path d="M153.444 93.0031L146.425 14.25H223.575L216.547 92.9906L184.953 101.75L153.444 93.0031Z" fill="#1572B6"/>
<path d="M185 95.0563L210.531 87.9782L216.538 20.6907H185V95.0563Z" fill="#33A9DC"/>
<path d="M185 49.222H197.781L198.662 39.3314H185V29.672H209.219L208.988 32.2626L206.616 58.8814H185V49.222Z" fill="white"/>
<path d="M185.059 74.3063L185.016 74.3188L174.259 71.4126L173.572 63.7095H163.875L165.228 78.8751L185.012 84.3688L185.059 84.3563V74.3063Z" fill="#EBEBEB"/>
<path d="M196.959 58.4719L195.797 71.4063L185.025 74.3126V84.3626L204.825 78.8751L204.972 77.2438L206.65 58.4719H196.959Z" fill="white"/>
<path d="M185.034 29.672V39.3314H161.703L161.509 37.1595L161.069 32.2626L160.838 29.672H185.034Z" fill="#EBEBEB"/>
<path d="M185 49.2219V58.8813H174.378L174.184 56.7094L173.747 51.8125L173.516 49.2219H185Z" fill="#EBEBEB"/>
<path d="M18.4437 93.0031L11.4219 14.25H88.5781L81.5469 92.9906L49.9531 101.75L18.4437 93.0031Z" fill="#E44F26"/>
<path d="M50 95.0563L75.5313 87.9782L81.5375 20.6907H50V95.0563Z" fill="#F1662A"/>
<path d="M50 49.8967H37.2188L36.3375 40.0061H50V30.3467H25.7812L26.0125 32.9404L28.3844 59.5561H50V49.8967Z" fill="#EBEBEB"/>
<path d="M49.9999 74.9811L49.9562 74.9936L39.1999 72.0905L38.5124 64.3873H28.8156L30.1687 79.5498L49.9562 85.0436L49.9999 85.0311V74.9811Z" fill="#EBEBEB"/>
<path d="M49.9656 49.8969V59.5562H61.8593L60.7406 72.0844L49.9656 74.9906V85.0406L69.7687 79.55L69.9125 77.9187L72.1812 52.4906L72.4187 49.8969H49.9656Z" fill="white"/>
<path d="M49.9656 30.3467V40.0061H73.2968L73.4906 37.8373L73.9312 32.9404L74.1625 30.3467H49.9656Z" fill="white"/>
</svg>
