<svg width="370" height="100" viewBox="0 0 370 100" fill="none" xmlns="http://www.w3.org/2000/svg">
<path d="M78.9565 47.8311C78.9565 42.5311 77.0502 38.8624 75.419 36.0061L74.919 35.1936C72.9377 32.0061 71.2065 29.2061 71.2065 25.9436C71.2065 22.0061 74.194 18.3311 78.4065 18.3311C78.5315 18.3311 78.6502 18.3436 78.769 18.3499L78.9627 18.3686C71.0638 11.1132 60.7256 7.09307 50.0002 7.10611C42.8919 7.10246 35.8944 8.8675 29.6382 12.2422C23.382 15.6168 18.0638 20.4951 14.1627 26.4374C15.1627 26.4686 16.119 26.4936 16.9252 26.4936C21.4065 26.4936 28.3502 25.9499 28.3502 25.9499C30.6627 25.8124 30.9377 29.2061 28.6252 29.4811C28.6252 29.4811 26.3065 29.7561 23.719 29.8874L39.344 76.3499L48.719 48.1874L42.0315 29.8811C39.7252 29.7436 37.5377 29.4749 37.5377 29.4749C35.2252 29.3374 35.5002 25.7999 37.8065 25.9374C37.8065 25.9374 44.894 26.4811 49.1065 26.4811C53.594 26.4811 60.544 25.9374 60.544 25.9374C62.8565 25.7999 63.1252 29.1999 60.8127 29.4749C60.8127 29.4749 58.4877 29.7436 55.9065 29.8811L71.4065 75.9874L75.6815 61.6936L76.019 60.6124C77.7065 55.2374 78.9502 51.2686 78.9502 47.8249L78.9565 47.8311ZM7.10648 49.9999C7.10605 58.0545 9.37322 65.9466 13.6485 72.7729C17.9239 79.5993 24.0346 85.0842 31.2815 88.5999L10.8127 32.5374C8.36167 38.0323 7.0987 43.983 7.10648 49.9999Z" fill="#00749C"/>
<path d="M37.8811 91.1439L50.7561 53.7502L63.9374 89.8752C64.0249 90.0814 64.1249 90.2752 64.2436 90.4627C55.7464 93.4563 46.5216 93.6947 37.8811 91.1439ZM87.6311 29.4189C87.8186 30.7877 87.9249 32.2502 87.9249 33.8314C87.9249 38.1814 87.1124 43.0752 84.6624 49.1939L71.5624 87.0689C81.2293 81.4524 88.32 72.2821 91.3229 61.5128C94.3258 50.7435 93.0033 39.2272 87.6374 29.4189H87.6311Z" fill="#00749C"/>
<path fill-rule="evenodd" clip-rule="evenodd" d="M0 50C0 22.4313 22.4313 0 50 0C77.5625 0 100 22.4313 100 50C100 77.5687 77.5625 100 50 100C22.4313 100 0 77.5687 0 50ZM2.29375 50C2.29375 76.3063 23.6937 97.7063 50 97.7063C76.3 97.7063 97.7 76.3063 97.7 50C97.7 23.6875 76.3 2.29375 50 2.29375C23.6875 2.29375 2.29375 23.6875 2.29375 50Z" fill="#00749C"/>
<path fill-rule="evenodd" clip-rule="evenodd" d="M185 0C157.375 0 135 22.375 135 50C135 72.125 149.312 90.8125 169.188 97.4375C171.688 97.875 172.625 96.375 172.625 95.0625C172.625 93.875 172.562 89.9375 172.562 85.75C160 88.0625 156.75 82.6875 155.75 79.875C155.188 78.4375 152.75 74 150.625 72.8125C148.875 71.875 146.375 69.5625 150.562 69.5C154.5 69.4375 157.312 73.125 158.25 74.625C162.75 82.1875 169.937 80.0625 172.812 78.75C173.25 75.5 174.562 73.3125 176 72.0625C164.875 70.8125 153.25 66.5 153.25 47.375C153.25 41.9375 155.188 37.4375 158.375 33.9375C157.875 32.6875 156.125 27.5625 158.875 20.6875C158.875 20.6875 163.062 19.375 172.625 25.8125C176.625 24.6875 180.875 24.125 185.125 24.125C189.375 24.125 193.625 24.6875 197.625 25.8125C207.188 19.3125 211.375 20.6875 211.375 20.6875C214.125 27.5625 212.375 32.6875 211.875 33.9375C215.062 37.4375 217 41.875 217 47.375C217 66.5625 205.312 70.8125 194.187 72.0625C196 73.625 197.562 76.625 197.562 81.3125C197.562 88 197.5 93.375 197.5 95.0625C197.5 96.375 198.437 97.9375 200.938 97.4375C210.863 94.0863 219.488 87.707 225.599 79.1974C231.709 70.6877 234.997 60.4762 235 50C235 22.375 212.625 0 185 0Z" fill="#7C007C"/>
<path d="M270 30.5657V63.9001H297.766V69.4344H320V63.9001H370V30.5657H270ZM297.766 58.3157H292.231V41.65H286.666V58.3157H275.566V36.1157H297.766V58.3157ZM314.434 58.3157V63.9001H303.334V36.1157H325.569V58.3313H314.434V58.3157ZM364.45 58.3157H358.9V41.65H353.334V58.3157H347.769V41.65H342.234V58.3157H331.1V36.1157H364.45V58.3157ZM314.434 41.6657H320V52.7813H314.434V41.6657Z" fill="#CC3534"/>
</svg>
